# xmcd
#
# Track frame offsets:
#	183
#	22068
#	42300
#	55195
#	68095
#	79968
#	96948
#	106985
#	124755
#	142068
#	156010
#	167813
#	184548
#	199265
#	215150
#	233035
#
# Disc length: 3276 seconds
#
# Revision: 0
# Processed by: cddbd v1.4PL0 Copyright (c) Steve Scherf et al.
# Submitted via: EasyCDDAExtractor 4.6.9.1
#
DISCID=e70cca10
DTITLE=Jonny Hill - Ruf Teddybär eins-vier
DYEAR=1900
DGENRE=
TTITLE0=Rus Teddybär eins-vier
TTITLE1=Dein erster Brief
TTITLE2=Clementine (Oh my Darling Clementine)
TTITLE3=Mein Bester Freund
TTITLE4=Ich mag so gerne Dicke
TTITLE5=Der letzte Drink
TTITLE6=Oh Susanna
TTITLE7=Vergiss deine Träume
TTITLE8=Geisterreiter
TTITLE9=Lass uns ausseinandergeh'n
TTITLE10=Locker vom Hocker
TTITLE11=Dann gehst du allein nach Hause
TTITLE12=Ein Glas Wein und noch Eins
TTITLE13=Pack doch deinen Koffer wieder aus
TTITLE14=Träume, die hat jeder
TTITLE15=Die letzte Reise
EXTD=
EXTT0=
EXTT1=
EXTT2=
EXTT3=
EXTT4=
EXTT5=
EXTT6=
EXTT7=
EXTT8=
EXTT9=
EXTT10=
EXTT11=
EXTT12=
EXTT13=
EXTT14=
EXTT15=
PLAYORDER=
